<svg width="375" height="287" viewBox="0 0 375 287" fill="none" xmlns="http://www.w3.org/2000/svg">
<g filter="url(#filter0_d)">
<path fill-rule="evenodd" clip-rule="evenodd" d="M185.077 -336.467C235.32 -342.275 297.889 -361.49 334.588 -326.687C375.65 -287.744 334.463 -207.712 368.509 -162.507C401.111 -119.219 489.597 -140.145 512.181 -90.884C532.774 -45.9669 472.475 -1.18913 464.849 47.6314C456.521 100.94 493.195 161.115 465.577 207.467C438.671 252.625 379.551 274.792 327.134 278.761C276.436 282.599 235.61 234.32 185.077 228.703C141.733 223.886 99.5173 260.304 57.4553 248.785C14.9571 237.146 -14.5909 199.31 -43.5442 166.095C-73.2839 131.978 -96.1963 93.6406 -114.039 52.0468C-134.21 5.02838 -168.199 -44.4126 -155.06 -93.8587C-141.847 -143.584 -83.7087 -165.302 -46.7668 -201.114C-14.0321 -232.847 11.9631 -270.955 51.3358 -293.941C92.2477 -317.826 138.017 -331.026 185.077 -336.467Z" fill="#8900F2"/>
<path fill-rule="evenodd" clip-rule="evenodd" d="M185.077 -336.467C235.32 -342.275 297.889 -361.49 334.588 -326.687C375.65 -287.744 334.463 -207.712 368.509 -162.507C401.111 -119.219 489.597 -140.145 512.181 -90.884C532.774 -45.9669 472.475 -1.18913 464.849 47.6314C456.521 100.94 493.195 161.115 465.577 207.467C438.671 252.625 379.551 274.792 327.134 278.761C276.436 282.599 235.61 234.32 185.077 228.703C141.733 223.886 99.5173 260.304 57.4553 248.785C14.9571 237.146 -14.5909 199.31 -43.5442 166.095C-73.2839 131.978 -96.1963 93.6406 -114.039 52.0468C-134.21 5.02838 -168.199 -44.4126 -155.06 -93.8587C-141.847 -143.584 -83.7087 -165.302 -46.7668 -201.114C-14.0321 -232.847 11.9631 -270.955 51.3358 -293.941C92.2477 -317.826 138.017 -331.026 185.077 -336.467Z" fill="url(#paint0_linear)"/>
</g>
<defs>
<filter id="filter0_d" x="-162" y="-347" width="682.444" height="633.978" filterUnits="userSpaceOnUse" color-interpolation-filters="sRGB">
<feFlood flood-opacity="0" result="BackgroundImageFix"/>
<feColorMatrix in="SourceAlpha" type="matrix" values="0 0 0 0 0 0 0 0 0 0 0 0 0 0 0 0 0 0 127 0"/>
<feOffset dy="4"/>
<feGaussianBlur stdDeviation="2"/>
<feColorMatrix type="matrix" values="0 0 0 0 0 0 0 0 0 0 0 0 0 0 0 0 0 0 0.25 0"/>
<feBlend mode="normal" in2="BackgroundImageFix" result="effect1_dropShadow"/>
<feBlend mode="normal" in="SourceGraphic" in2="effect1_dropShadow" result="shape"/>
</filter>
<linearGradient id="paint0_linear" x1="760" y1="318" x2="0.499993" y2="279" gradientUnits="userSpaceOnUse">
<stop stop-color="white"/>
<stop offset="1" stop-color="#FF00B2" stop-opacity="0"/>
</linearGradient>
</defs>
</svg>
